<svg width="60" height="63" viewBox="0 0 60 63" fill="none" xmlns="http://www.w3.org/2000/svg">
<path fill-rule="evenodd" clip-rule="evenodd" d="M59 1H1V58.7059L0 59.9118V59V1V0H1H59H60V1V59V59.5797L59 58.3913V1ZM41 37L50.1924 47.9243C54.4277 43.1567 57 36.8787 57 30C57 15.4231 45.4484 3.54423 31 3.01818V3H30C15.0883 3 3 15.0883 3 30C3 36.916 5.60031 43.2247 9.8766 48.0017L19 37H41ZM41 43L19 43V42L41 42V43ZM16 47V48L44 48V47L16 47ZM13 53L48 53V52L13 52V53ZM9 58L52 58V57L9 57V58ZM56 63L5 63V62L56 62V63Z" fill="#F2F2F2"/>
</svg>
