<svg width="162" height="34" viewBox="0 0 162 34" fill="none" xmlns="http://www.w3.org/2000/svg">
<path d="M2.22112 20V0.578722H9.29079C11.4577 0.578722 13.1236 0.975996 14.2883 1.77054C15.4531 2.56509 16.0354 3.68468 16.0354 5.12931C16.0354 6.17667 15.6788 7.09311 14.9655 7.87863C14.2612 8.66415 13.3583 9.2104 12.2568 9.51739V9.57156C13.6382 9.74311 14.7398 10.2532 15.5614 11.102C16.3921 11.9507 16.8074 12.9845 16.8074 14.2034C16.8074 15.9821 16.1709 17.3951 14.8978 18.4425C13.6247 19.4808 11.8866 20 9.68355 20H2.22112ZM6.59565 3.80206V8.40682H8.51882C9.42171 8.40682 10.1305 8.19013 10.6451 7.75674C11.1688 7.31432 11.4307 6.70938 11.4307 5.94192C11.4307 4.51535 10.3652 3.80206 8.23441 3.80206H6.59565ZM6.59565 11.6572V16.7767H8.96575C9.97699 16.7767 10.767 16.5419 11.3359 16.0724C11.9137 15.6029 12.2026 14.9618 12.2026 14.1492C12.2026 13.3727 11.9182 12.7633 11.3494 12.3209C10.7896 11.8785 10.0041 11.6572 8.99284 11.6572H6.59565ZM31.6645 20H20.0172V0.578722H31.2176V4.14064H24.3917V8.461H30.7436V12.0094H24.3917V16.4516H31.6645V20ZM48.4719 4.14064H42.9327V20H38.5446V4.14064H33.0324V0.578722H48.4719V4.14064ZM66.0784 20H61.3111L59.9297 15.6796H53.0225L51.6546 20H46.9144L53.9841 0.578722H59.1712L66.0784 20ZM58.9275 12.3209L56.8418 5.79294C56.6883 5.30538 56.5799 4.72301 56.5167 4.04584H56.4084C56.3632 4.61466 56.2504 5.17897 56.0698 5.73877L53.957 12.3209H58.9275ZM79.7302 4.14064H72.8772V8.90793H79.1749V12.4563H72.8772V20H68.5027V0.578722H79.7302V4.14064ZM98.7722 11.5895C98.7722 17.4222 96.0545 20.3386 90.6191 20.3386C85.3462 20.3386 82.7097 17.49 82.7097 11.7927V0.578722H87.0978V11.8469C87.0978 14.9889 88.3257 16.56 90.7816 16.56C93.1923 16.56 94.3977 15.0431 94.3977 12.0094V0.578722H98.7722V11.5895ZM120.482 20H116.067L108.063 7.79737C107.594 7.08408 107.268 6.54686 107.088 6.1857H107.034C107.106 6.8719 107.142 7.91926 107.142 9.32778V20H103.011V0.578722H107.724L115.431 12.4021C115.783 12.9348 116.108 13.463 116.406 13.9867H116.46C116.388 13.5353 116.352 12.6459 116.352 11.3187V0.578722H120.482V20ZM124.925 20V0.578722H131.805C138.703 0.578722 142.152 3.73434 142.152 10.0456C142.152 13.0703 141.208 15.4855 139.321 17.2913C137.443 19.0971 134.938 20 131.805 20H124.925ZM129.299 4.14064V16.4516H131.466C133.362 16.4516 134.847 15.8828 135.922 14.7451C137.005 13.6075 137.547 12.059 137.547 10.0998C137.547 8.24882 137.01 6.79516 135.935 5.73877C134.87 4.67335 133.371 4.14064 131.439 4.14064H129.299ZM161.993 20H157.226L155.844 15.6796H148.937L147.569 20H142.829L149.899 0.578722H155.086L161.993 20ZM154.842 12.3209L152.756 5.79294C152.603 5.30538 152.495 4.72301 152.431 4.04584H152.323C152.278 4.61466 152.165 5.17897 151.984 5.73877L149.872 12.3209H154.842ZM4.9707 33H0.800781V25.998H2.37793V31.7207H4.9707V33ZM12.3682 33H10.6494L10.1514 31.4424H7.66113L7.16797 33H5.45898L8.00781 25.998H9.87793L12.3682 33ZM9.79004 30.2314L9.03809 27.8779C8.98275 27.7021 8.94368 27.4922 8.9209 27.248H8.88184C8.86556 27.4531 8.82487 27.6566 8.75977 27.8584L7.99805 30.2314H9.79004ZM13.2422 33V25.998H15.791C16.5723 25.998 17.1729 26.1413 17.5928 26.4277C18.0127 26.7142 18.2227 27.1178 18.2227 27.6387C18.2227 28.0163 18.0941 28.3467 17.8369 28.6299C17.583 28.9131 17.2575 29.11 16.8604 29.2207V29.2402C17.3584 29.3021 17.7555 29.486 18.0518 29.792C18.3512 30.098 18.501 30.4707 18.501 30.9102C18.501 31.5514 18.2715 32.0609 17.8125 32.4385C17.3535 32.8128 16.7269 33 15.9326 33H13.2422ZM14.8193 27.1602V28.8203H15.5127C15.8382 28.8203 16.0938 28.7422 16.2793 28.5859C16.4681 28.4264 16.5625 28.2083 16.5625 27.9316C16.5625 27.4173 16.1784 27.1602 15.4102 27.1602H14.8193ZM14.8193 29.9922V31.8379H15.6738C16.0384 31.8379 16.3232 31.7533 16.5283 31.584C16.7367 31.4147 16.8408 31.1836 16.8408 30.8906C16.8408 30.6107 16.7383 30.391 16.5332 30.2314C16.3314 30.0719 16.0482 29.9922 15.6836 29.9922H14.8193ZM19.3359 32.7314V31.1689C19.6191 31.4066 19.9268 31.5856 20.2588 31.7061C20.5908 31.8232 20.9261 31.8818 21.2646 31.8818C21.4632 31.8818 21.6357 31.8639 21.7822 31.8281C21.932 31.7923 22.0557 31.7435 22.1533 31.6816C22.2542 31.6165 22.3291 31.5417 22.3779 31.457C22.4268 31.3691 22.4512 31.2747 22.4512 31.1738C22.4512 31.0371 22.4121 30.915 22.334 30.8076C22.2559 30.7002 22.1484 30.6009 22.0117 30.5098C21.8783 30.4186 21.7188 30.3307 21.5332 30.2461C21.3477 30.1615 21.1475 30.0752 20.9326 29.9873C20.3857 29.7594 19.9772 29.4811 19.707 29.1523C19.4401 28.8236 19.3066 28.4264 19.3066 27.9609C19.3066 27.5964 19.3799 27.2839 19.5264 27.0234C19.6729 26.7598 19.8714 26.5433 20.1221 26.374C20.376 26.2048 20.6689 26.0811 21.001 26.0029C21.333 25.9215 21.6846 25.8809 22.0557 25.8809C22.4202 25.8809 22.7425 25.9036 23.0225 25.9492C23.3057 25.9915 23.5661 26.0583 23.8037 26.1494V27.6094C23.6865 27.528 23.5579 27.4564 23.418 27.3945C23.2812 27.3327 23.1396 27.2822 22.9932 27.2432C22.8467 27.2008 22.7002 27.1699 22.5537 27.1504C22.4105 27.1309 22.2738 27.1211 22.1436 27.1211C21.9645 27.1211 21.8018 27.139 21.6553 27.1748C21.5088 27.2074 21.3851 27.2546 21.2842 27.3164C21.1833 27.3783 21.1051 27.4531 21.0498 27.541C20.9945 27.6257 20.9668 27.7217 20.9668 27.8291C20.9668 27.9463 20.9977 28.0521 21.0596 28.1465C21.1214 28.2376 21.2093 28.3255 21.3232 28.4102C21.4372 28.4915 21.5755 28.5729 21.7383 28.6543C21.901 28.7324 22.085 28.8138 22.29 28.8984C22.57 29.0156 22.8206 29.141 23.042 29.2744C23.2666 29.4046 23.4587 29.5527 23.6182 29.7188C23.7777 29.8848 23.8997 30.0752 23.9844 30.29C24.069 30.5016 24.1113 30.749 24.1113 31.0322C24.1113 31.4229 24.0365 31.7516 23.8867 32.0186C23.7402 32.2822 23.54 32.4971 23.2861 32.6631C23.0322 32.8258 22.736 32.943 22.3975 33.0146C22.0622 33.0863 21.7074 33.1221 21.333 33.1221C20.9489 33.1221 20.5827 33.0895 20.2344 33.0244C19.8893 32.9593 19.5898 32.8617 19.3359 32.7314Z" fill="#F2F2F2"/>
</svg>
